<?xml version="1.0" standalone="no"?>
<!DOCTYPE svg PUBLIC "-//W3C//DTD SVG 20010904//EN"
 "http://www.w3.org/TR/2001/REC-SVG-20010904/DTD/svg10.dtd">
<svg version="1.0" xmlns="http://www.w3.org/2000/svg"
 width="16.000000pt" height="16.000000pt" viewBox="0 0 16.000000 16.000000"
 preserveAspectRatio="xMidYMid meet">
<metadata>
Created by potrace 1.11, written by Peter Selinger 2001-2013
</metadata>
<g transform="translate(0.000000,16.000000) scale(0.003125,-0.003125)"
fill="#000000" stroke="none">
<path d="M3836 5112 c-7 -12 13 -29 114 -93 47 -29 87 -57 88 -61 2 -5 8 -8
13 -8 6 0 40 -24 77 -54 87 -70 128 -106 121 -106 -5 0 -147 60 -224 95 -16 8
-73 32 -125 54 l-95 40 -14 -29 c-9 -19 -11 -34 -5 -39 5 -5 74 -37 154 -71
80 -35 163 -71 185 -81 22 -10 83 -36 135 -58 84 -35 98 -44 118 -80 13 -23
22 -45 20 -51 -2 -5 -52 13 -113 39 -563 244 -536 234 -550 214 -33 -44 -37
-42 334 -202 l356 -154 -3 -39 c-3 -24 -9 -38 -16 -35 -6 3 -132 57 -280 121
-148 64 -283 122 -300 130 -17 7 -55 24 -84 36 -56 25 -66 22 -77 -21 -6 -24
-2 -27 97 -69 57 -24 130 -56 163 -71 33 -14 154 -66 268 -115 201 -86 208
-90 202 -114 -4 -14 -8 -26 -10 -28 -2 -2 -171 69 -376 157 -204 88 -375 158
-379 156 -5 -3 -13 -18 -18 -34 l-10 -28 252 -108 c138 -60 274 -119 301 -131
28 -13 79 -35 115 -49 36 -15 69 -30 73 -34 8 -8 -11 -61 -23 -61 -6 0 -452
189 -495 210 -11 6 -72 32 -135 59 l-115 50 -12 -22 c-23 -41 -15 -51 70 -86
45 -19 100 -42 122 -52 22 -10 150 -65 284 -123 134 -58 246 -107 249 -110 5
-5 -17 -66 -24 -66 -2 0 -88 36 -191 81 -104 44 -251 108 -328 140 -77 33
-159 69 -182 80 -24 10 -45 19 -47 19 -10 0 -28 -62 -20 -69 5 -5 63 -31 129
-59 67 -28 152 -65 190 -82 39 -18 81 -36 95 -42 14 -5 93 -39 177 -75 l151
-66 -15 -33 c-17 -35 -17 -35 -88 -3 -184 81 -671 289 -676 289 -9 0 -33 -59
-27 -65 2 -3 110 -50 239 -106 129 -55 296 -127 371 -161 l138 -60 -15 -29
c-18 -34 -15 -34 -68 -10 -23 10 -159 69 -302 131 -143 62 -273 118 -290 125
-54 24 -108 45 -110 43 -15 -28 -24 -63 -18 -68 4 -4 42 -21 83 -38 41 -17
154 -65 250 -107 96 -42 228 -99 293 -127 64 -27 117 -52 117 -54 0 -3 -7 -18
-15 -35 -15 -29 -16 -29 -50 -14 -19 8 -52 22 -72 31 -21 9 -51 22 -68 29 -16
8 -61 27 -100 43 -38 17 -160 69 -270 116 -110 47 -202 86 -205 86 -6 0 -31
-62 -27 -66 1 -2 72 -33 157 -69 85 -36 168 -72 184 -80 17 -8 114 -50 216
-93 154 -66 184 -83 182 -98 -2 -11 -7 -22 -10 -26 -4 -3 -173 65 -376 153
-203 87 -372 159 -376 159 -8 0 -33 -61 -28 -66 2 -1 64 -28 138 -59 74 -32
158 -67 185 -80 28 -12 115 -51 195 -85 80 -34 164 -71 187 -81 41 -17 42 -18
30 -48 -8 -23 -16 -29 -29 -25 -9 3 -177 74 -374 159 -196 85 -360 152 -364
150 -5 -3 -13 -18 -18 -34 -10 -29 -9 -30 41 -51 413 -176 684 -294 690 -300
6 -5 -5 -45 -19 -68 -1 -2 -21 6 -45 17 -24 11 -145 63 -269 116 -124 53 -238
103 -255 110 -87 39 -174 75 -179 75 -3 0 -12 -13 -21 -30 -15 -29 -15 -30 16
-46 18 -9 113 -51 213 -94 99 -42 204 -87 231 -99 28 -12 100 -43 160 -70 101
-43 110 -49 107 -72 -8 -56 19 -64 -448 139 l-322 139 -16 -34 -16 -34 42 -18
c181 -78 576 -249 636 -274 39 -17 72 -36 72 -41 -1 -6 -6 -21 -13 -33 -12
-22 -14 -21 -257 83 -135 57 -254 109 -265 114 -60 28 -229 100 -235 100 -7 0
-30 -45 -30 -59 0 -4 55 -32 123 -61 67 -29 160 -69 207 -90 47 -20 158 -68
247 -106 167 -71 175 -77 150 -120 -12 -21 -21 -17 -385 139 -230 99 -376 157
-381 151 -5 -5 -12 -20 -16 -34 -6 -24 1 -28 167 -99 95 -41 206 -89 246 -107
41 -19 79 -34 86 -34 6 0 16 -4 21 -8 6 -5 56 -28 113 -52 99 -42 103 -45 97
-69 -4 -14 -8 -28 -10 -30 -3 -2 -159 63 -347 144 -189 82 -358 154 -376 162
-32 13 -33 13 -47 -19 -13 -31 -12 -34 8 -44 12 -7 177 -78 367 -159 190 -82
348 -151 352 -155 4 -3 3 -20 -4 -36 l-11 -31 -241 104 c-133 57 -250 108
-261 113 -11 5 -72 32 -135 59 l-115 48 -17 -31 c-9 -17 -13 -34 -10 -37 6 -5
402 -176 690 -299 54 -23 58 -29 42 -60 -10 -18 -11 -18 -53 0 -324 141 -697
300 -704 300 -5 0 -14 -14 -20 -30 -11 -28 -9 -31 16 -44 25 -14 327 -145 587
-256 l112 -47 65 13 c75 16 236 13 315 -6 29 -6 55 -10 57 -8 3 3 281 642 322
743 14 33 34 80 45 104 71 157 375 868 395 925 41 117 28 265 -37 404 -105
224 -322 426 -570 526 -127 52 -272 87 -284 68z"/>
<path d="M2730 4115 c-250 -547 -457 -995 -460 -995 -6 0 -51 56 -486 595
-168 209 -357 443 -419 520 -63 77 -186 229 -274 338 -89 110 -161 192 -161
185 0 -31 42 -178 77 -268 71 -186 240 -505 392 -741 31 -48 68 -107 82 -131
66 -107 306 -449 494 -703 62 -82 115 -155 118 -161 5 -10 -348 -803 -365
-819 -2 -3 -27 17 -55 44 -199 186 -555 190 -835 9 -172 -111 -291 -244 -379
-423 -58 -120 -90 -246 -91 -359 0 -116 13 -185 50 -271 139 -320 524 -425
887 -243 204 102 370 276 467 487 22 47 93 194 158 326 65 132 132 269 148
305 17 36 57 123 91 193 34 71 61 130 61 132 0 1 29 64 65 140 l65 137 95
-119 c221 -273 434 -533 484 -588 15 -16 73 -85 130 -153 57 -67 109 -126 116
-130 6 -4 27 -43 47 -88 142 -332 470 -574 798 -589 308 -14 537 154 599 440
91 416 -215 894 -664 1038 -115 37 -244 49 -340 32 -158 -29 -298 -123 -381
-257 l-31 -50 -254 313 c-139 173 -293 363 -341 422 -48 60 -88 112 -88 116 0
5 21 57 46 117 200 475 370 941 475 1304 28 96 53 186 55 200 3 14 10 43 16
65 50 191 86 492 69 589 -5 32 -51 -63 -461 -959z m-340 -1320 c48 -51 12
-135 -57 -135 -70 0 -106 83 -59 133 33 36 84 37 116 2z m1465 -881 c116 -27
281 -154 360 -279 120 -187 132 -409 27 -502 -151 -135 -469 -29 -638 213
l-41 59 68 160 c38 88 76 174 84 192 8 17 15 33 15 36 0 2 14 34 30 71 24 52
35 66 48 62 9 -3 31 -8 47 -12z m-2450 -150 c20 -9 64 -49 97 -87 68 -79 66
-68 24 -212 -58 -194 -123 -298 -257 -407 -93 -75 -195 -117 -305 -123 -114
-6 -194 36 -239 124 -23 45 -31 165 -15 232 17 74 81 205 124 254 20 22 36 43
36 46 0 14 139 118 195 147 114 58 250 69 340 26z"/>
<path d="M2899 2507 c51 -71 65 -80 221 -147 80 -34 163 -70 184 -80 39 -17
41 -17 83 3 37 18 41 22 26 31 -10 6 -130 59 -268 119 -137 59 -256 111 -264
114 -8 4 0 -14 18 -40z"/>
<path d="M3080 2283 c61 -78 92 -110 118 -119 28 -11 33 -9 56 16 l25 28 -32
15 c-18 8 -49 22 -69 31 -21 9 -55 23 -75 32 -36 15 -37 15 -23 -3z"/>
<path d="M2516 2004 c-9 -24 -7 -34 7 -34 6 0 25 -7 41 -15 16 -9 30 -14 32
-12 5 5 -56 77 -66 77 -4 0 -11 -7 -14 -16z"/>
<path d="M2474 1893 c-8 -19 -14 -36 -12 -37 2 -1 26 -12 53 -23 28 -12 98
-42 158 -67 59 -25 107 -44 107 -41 0 2 -22 29 -48 60 -41 48 -63 63 -146 100
l-97 44 -15 -36z"/>
<path d="M2412 1758 c-6 -17 -11 -32 -9 -33 1 -1 72 -31 157 -68 85 -37 216
-93 290 -126 74 -32 137 -57 139 -55 2 2 -3 9 -10 17 -8 8 -31 34 -51 59 -29
35 -55 53 -115 78 -43 18 -96 40 -118 50 -22 10 -74 33 -115 50 -41 18 -88 38
-104 46 -42 20 -50 18 -64 -18z"/>
<path d="M2351 1619 c-12 -34 -35 -20 194 -119 116 -50 197 -85 230 -100 11
-5 85 -37 165 -71 80 -34 146 -62 147 -63 5 -4 -22 -66 -28 -66 -4 0 -159 66
-345 146 -187 81 -353 153 -371 160 -31 13 -32 13 -48 -18 -14 -30 -14 -33 2
-42 10 -5 177 -79 372 -162 194 -84 355 -155 357 -157 3 -2 0 -17 -6 -32 -8
-21 -15 -26 -33 -21 -12 3 -182 75 -378 159 l-356 154 -16 -34 -15 -35 31 -13
c121 -51 713 -307 716 -311 6 -5 -20 -64 -29 -64 -4 0 -164 68 -356 151 -192
83 -358 155 -370 159 -18 7 -24 3 -37 -25 -12 -25 -13 -35 -4 -38 34 -14 626
-270 652 -282 17 -7 43 -18 58 -24 29 -11 34 -28 15 -53 -12 -15 -51 0 -381
143 -203 87 -372 159 -375 159 -7 0 -34 -61 -29 -66 1 -1 52 -23 112 -49 313
-134 621 -268 628 -275 13 -12 -15 -62 -32 -57 -9 3 -169 71 -356 152 -187 81
-350 151 -363 156 -19 7 -24 4 -36 -24 -10 -25 -10 -34 -1 -39 16 -10 607
-266 670 -290 28 -11 53 -23 58 -27 6 -6 -10 -71 -18 -71 -3 0 -274 116 -350
150 -198 88 -399 169 -405 163 -3 -4 -11 -19 -17 -33 l-11 -26 370 -159 c203
-87 371 -162 374 -166 7 -11 -18 -59 -30 -59 -9 0 -528 220 -674 286 -29 13
-57 24 -62 24 -4 0 -15 -14 -24 -30 -13 -27 -13 -31 2 -39 9 -5 172 -75 362
-157 190 -81 347 -149 349 -151 3 -2 -7 -15 -21 -29 l-25 -26 -74 32 c-41 18
-92 40 -114 50 -119 53 -513 220 -517 220 -3 0 -11 -13 -18 -29 -12 -30 -7
-51 11 -51 12 0 612 -259 622 -269 4 -4 -15 -15 -42 -24 -43 -14 -54 -14 -78
-2 -57 27 -544 235 -552 235 -9 0 -36 -58 -30 -64 2 -2 101 -45 219 -96 118
-50 217 -94 219 -96 2 -2 -25 -1 -60 2 -78 5 -237 36 -356 69 -104 29 -103 29
-103 11 0 -31 192 -148 320 -195 140 -51 235 -66 410 -66 156 1 254 22 376 80
112 54 194 131 240 226 37 76 274 624 274 634 0 3 -22 32 -48 63 -67 79 -107
139 -158 242 l-44 88 -92 40 c-337 147 -632 272 -643 272 -7 0 -18 -14 -24
-31z"/>
</g>
</svg>
